<?xml version="1.0" encoding="UTF-8" standalone="no"?>
<!-- Created with Inkscape (http://www.inkscape.org/) -->

<svg
   width="33.866665mm"
   height="33.866669mm"
   viewBox="0 0 33.866665 33.866669"
   version="1.1"
   id="svg5"
   inkscape:export-filename="bitmap.png"
   inkscape:export-xdpi="96"
   inkscape:export-ydpi="96"
   xmlns:inkscape="http://www.inkscape.org/namespaces/inkscape"
   xmlns:sodipodi="http://sodipodi.sourceforge.net/DTD/sodipodi-0.dtd"
   xmlns="http://www.w3.org/2000/svg"
   xmlns:svg="http://www.w3.org/2000/svg">
  <sodipodi:namedview
     id="namedview7"
     pagecolor="#ffffff"
     bordercolor="#000000"
     borderopacity="0.25"
     inkscape:showpageshadow="2"
     inkscape:pageopacity="0.0"
     inkscape:pagecheckerboard="0"
     inkscape:deskcolor="#d1d1d1"
     inkscape:document-units="mm"
     showgrid="false"
     inkscape:zoom="1.4912879"
     inkscape:cx="187.75718"
     inkscape:cy="299.40564"
     inkscape:window-width="1920"
     inkscape:window-height="1008"
     inkscape:window-x="0"
     inkscape:window-y="0"
     inkscape:window-maximized="1"
     inkscape:current-layer="layer1" />
  <defs
     id="defs2" />
  <g
     inkscape:label="Layer 1"
     inkscape:groupmode="layer"
     id="layer1"
     transform="translate(-21.578854,-22.901569)">
    <g
       aria-label="e"
       id="text2230"
       style="font-style:italic;font-weight:900;font-size:109.222px;font-family:'Inter Tight';-inkscape-font-specification:'Inter Tight Heavy Italic';stroke-width:9.99998"
       transform="matrix(0.26458346,0,0,0.26458346,-2.4981241,10.889091)">
      <path
         id="path2301"
         style="font-style:normal;font-weight:300;-inkscape-font-specification:'Inter Tight Light';stroke-width:10"
         d="m 123.46528,45.401475 c -6.43103,0 -12.08562,1.382816 -16.96434,4.148584 -4.87871,2.765767 -8.693407,6.564295 -11.443228,11.39517 -2.705469,4.830874 -4.05815,10.362655 -4.05815,16.594853 0,6.232196 1.374992,11.745044 4.124813,16.539042 2.749821,4.794001 6.675045,8.555696 11.775505,11.284586 5.10049,2.692 11.1105,4.03799 18.02939,4.03799 4.92308,0 9.2914,-0.66403 13.10566,-1.99161 3.85863,-1.36444 7.05223,-3.13453 9.5803,-5.31027 2.57241,-2.212611 4.43513,-4.609389 5.58829,-7.190773 l -8.18297,-2.268078 c -0.93139,1.843845 -2.30637,3.558681 -4.12481,5.144389 -1.81843,1.548829 -4.05837,2.784312 -6.71949,3.706232 -2.66111,0.92192 -5.74317,1.38286 -9.24698,1.38286 -5.14481,0 -9.62469,-1.01396 -13.43897,-3.042189 -3.76992,-2.02823 -6.69683,-4.868045 -8.78138,-8.51886 -1.90188,-3.437716 -2.916366,-7.420796 -3.045287,-11.948108 H 154.99979 V 76.15722 c 0,-5.310274 -0.86495,-9.883344 -2.59467,-13.718542 -1.72974,-3.872075 -4.10251,-7.061812 -7.11843,-9.569442 -3.01593,-2.507629 -6.40879,-4.3698 -10.17871,-5.586739 -3.76992,-1.253814 -7.65102,-1.881022 -11.6427,-1.881022 z m 65.71279,0 c -4.25665,0 -8.4629,0.460702 -12.61939,1.381828 -4.15649,0.884281 -7.91281,2.339664 -11.26805,4.366141 -3.35523,2.026479 -5.9844,4.716375 -7.88737,8.069275 l 9.31468,2.48667 c 1.50234,-2.652844 4.15637,-4.955317 7.9623,-6.908105 3.80595,-1.952788 8.73913,-2.929537 14.79858,-2.929537 6.35994,0 11.24237,1.216066 14.64769,3.647839 3.40531,2.39493 5.10821,5.711048 5.10821,9.94823 v 1.437122 c 0,1.547492 -0.85171,2.671315 -2.55436,3.37137 -1.70266,0.700058 -4.18118,1.215587 -7.43624,1.547193 -3.25509,0.294759 -7.23662,0.663217 -11.94398,1.105359 -4.75742,0.405295 -9.11434,1.013069 -13.07052,1.823661 -3.90609,0.773746 -7.31138,1.842738 -10.21591,3.206006 -2.90453,1.326421 -5.13296,3.02112 -6.68538,5.084444 -1.55242,2.063323 -2.32854,4.624078 -2.32854,7.682218 0,3.979267 1.22709,7.369185 3.68091,10.169401 2.50391,2.76339 5.85896,4.88188 10.06554,6.35569 4.20655,1.43696 8.83894,2.15542 13.89682,2.15542 4.70736,0 8.78883,-0.55295 12.24422,-1.65829 3.45539,-1.10536 6.33463,-2.5054 8.63823,-4.20026 2.3036,-1.73172 4.0065,-3.50021 5.10822,-5.305624 h 0.60099 v 9.782344 h 9.76478 V 66.126825 c 0,-4.126647 -0.95112,-7.534493 -2.85409,-10.224182 -1.8529,-2.726536 -4.28168,-4.845554 -7.28638,-6.356201 -3.00468,-1.510649 -6.23497,-2.579123 -9.69036,-3.20549 -3.4554,-0.626365 -6.78561,-0.939477 -9.9906,-0.939477 z m -65.71279,6.52725 c 4.79002,0 8.89267,1.032896 12.30778,3.098002 3.41509,2.065107 6.03174,4.867572 7.85016,8.407756 1.52008,2.888878 2.41941,6.097396 2.69906,9.624735 H 99.70084 c 0.223715,-3.476573 1.18103,-6.703469 2.87476,-9.680029 1.99584,-3.46643 4.78993,-6.232061 8.38243,-8.297168 3.59251,-2.101984 7.76159,-3.153296 12.50725,-3.153296 z m 85.76944,23.483321 v 8.898165 c 0,3.352901 -1.02672,6.447636 -3.07991,9.284705 -2.05322,2.837069 -4.98319,5.103161 -8.78913,6.798034 -3.75587,1.65803 -8.21272,2.48719 -13.37076,2.48719 -5.55868,0 -10.16567,-1.03158 -13.82138,-3.094904 -3.60563,-2.063324 -5.40845,-4.955639 -5.40845,-8.67699 0,-2.505465 0.87604,-4.550689 2.62878,-6.135026 1.8028,-1.584339 4.38226,-2.836784 7.73751,-3.75791 3.4053,-0.921128 7.46142,-1.603212 12.16876,-2.045354 1.70266,-0.147379 3.65564,-0.33135 5.85908,-0.552421 2.25352,-0.221069 4.45709,-0.478835 6.61045,-0.773596 2.20343,-0.29476 4.13156,-0.644769 5.78414,-1.050065 1.70266,-0.405296 2.92974,-0.865997 3.68091,-1.381828 z M 125.2259,109.4017 c -6.77101,0 -12.73068,1.38281 -17.8785,4.14859 -5.14781,2.76576 -9.15905,6.56429 -12.034406,11.39517 -2.875357,4.79399 -4.313432,10.30685 -4.313432,16.53904 0,6.12156 1.414688,11.5981 4.243669,16.42897 2.828979,4.794 6.817349,8.57359 11.965159,11.33936 5.14782,2.76577 11.2,4.14858 18.15652,4.14858 5.37969,0 10.15648,-0.82979 14.33039,-2.48925 4.22027,-1.69634 7.65203,-4.00103 10.29549,-6.91431 2.68986,-2.91327 4.35972,-6.23194 5.009,-9.95649 h -9.04338 c -1.06665,3.90894 -3.47818,7.02501 -7.2347,9.34826 -3.7565,2.32325 -8.20899,3.48454 -13.3568,3.48454 -5.05507,0 -9.50703,-1.08763 -13.35629,-3.26336 -3.8029,-2.17574 -6.74818,-5.19972 -8.83512,-9.0718 -2.08696,-3.87208 -3.13005,-8.29729 -3.13005,-13.27568 0,-5.01525 1.06648,-9.42205 3.19981,-13.22038 2.17971,-3.79831 5.17073,-6.76706 8.97361,-8.90591 3.8029,-2.13887 8.18572,-3.20808 13.14804,-3.20808 3.71013,0 6.97972,0.58985 9.8087,1.76992 2.87536,1.14318 5.21723,2.67385 7.02593,4.59145 1.85507,1.9176 3.1076,4.03762 3.75687,6.36085 h 9.04338 c -0.69565,-3.83519 -2.43466,-7.19068 -5.21725,-10.06708 -2.73623,-2.91328 -6.21475,-5.16272 -10.43502,-6.74843 -4.22029,-1.62259 -8.92744,-2.43396 -14.12162,-2.43396 z m 63.95217,0 c -4.25665,0 -8.4629,0.4607 -12.61939,1.38183 -4.15649,0.88428 -7.91281,2.33966 -11.26805,4.36614 -3.35523,2.02648 -5.9844,4.71586 -7.88737,8.06876 l 9.31468,2.48719 c 1.50234,-2.65285 4.15637,-4.95583 7.9623,-6.90863 3.80595,-1.95278 8.73913,-2.92902 14.79858,-2.92902 6.35994,0 11.24237,1.21608 14.64769,3.64784 3.40531,2.39494 5.10821,5.71053 5.10821,9.94772 v 1.43712 c 0,1.54749 -0.85171,2.67131 -2.55436,3.37137 -1.70266,0.70006 -4.18118,1.2161 -7.43624,1.54771 -3.25509,0.29476 -7.23662,0.66322 -11.94398,1.10536 -4.75742,0.40529 -9.11434,1.01307 -13.07052,1.82366 -3.90609,0.77375 -7.31138,1.84222 -10.21591,3.20549 -2.90453,1.32642 -5.13296,3.02112 -6.68538,5.08444 -1.55242,2.06333 -2.32854,4.62408 -2.32854,7.68222 0,3.97927 1.22709,7.36918 3.68091,10.16941 2.50391,2.76337 5.85896,4.88188 10.06554,6.35568 4.20655,1.43696 8.83894,2.15542 13.89682,2.15542 4.70736,0 8.78883,-0.55242 12.24422,-1.65778 3.45539,-1.10534 6.33463,-2.50538 8.63823,-4.20026 2.3036,-1.73171 4.0065,-3.50021 5.10822,-5.30562 h 0.60099 v 9.78235 h 9.76478 v -41.89305 c 0,-4.12664 -0.95112,-7.535 -2.85409,-10.2247 -1.8529,-2.72652 -4.28168,-4.84503 -7.28638,-6.35568 -3.00468,-1.51065 -6.23497,-2.57912 -9.69036,-3.20549 -3.4554,-0.62637 -6.78561,-0.93948 -9.9906,-0.93948 z m 20.05665,30.01006 v 8.89816 c 0,3.35291 -1.02672,6.44816 -3.07991,9.28522 -2.05322,2.83708 -4.98319,5.10316 -8.78913,6.79804 -3.75587,1.65803 -8.21272,2.48667 -13.37076,2.48667 -5.55868,0 -10.16567,-1.03159 -13.82138,-3.0949 -3.60563,-2.06333 -5.40845,-4.95565 -5.40845,-8.67699 0,-2.50547 0.87604,-4.55017 2.62878,-6.13451 1.8028,-1.58434 4.38226,-2.8373 7.73751,-3.75843 3.4053,-0.92113 7.46142,-1.60269 12.16876,-2.04484 1.70266,-0.14738 3.65564,-0.33186 5.85908,-0.55293 2.25352,-0.22107 4.45709,-0.47884 6.61045,-0.7736 2.20343,-0.29476 4.13156,-0.64478 5.78414,-1.05006 1.70266,-0.4053 2.92974,-0.866 3.68091,-1.38183 z" />
    </g>
  </g>
</svg>
